<mxfile host="Electron" modified="2024-02-25T12:07:19.317Z" agent="Mozilla/5.0 (X11; Linux x86_64) AppleWebKit/537.36 (KHTML, like Gecko) draw.io/23.1.5 Chrome/120.0.6099.109 Electron/28.1.0 Safari/537.36" etag="xqm4p6KBEQTwG7BbJ7WF" version="23.1.5" type="device">
  <diagram name="Page-1" id="F4daBAyixwd9roR_W63V">
    <mxGraphModel dx="1434" dy="963" grid="1" gridSize="10" guides="1" tooltips="1" connect="1" arrows="1" fold="1" page="1" pageScale="1" pageWidth="1169" pageHeight="827" math="0" shadow="0">
      <root>
        <mxCell id="0" />
        <mxCell id="1" parent="0" />
        <mxCell id="p4YoFSWFox9EZgscsfsj-16" value="Auth Domain" style="swimlane;whiteSpace=wrap;html=1;" vertex="1" parent="1">
          <mxGeometry x="80" y="80" width="600" height="140" as="geometry" />
        </mxCell>
        <mxCell id="p4YoFSWFox9EZgscsfsj-5" value="account" style="rounded=1;whiteSpace=wrap;html=1;" vertex="1" parent="p4YoFSWFox9EZgscsfsj-16">
          <mxGeometry x="240" y="50" width="120" height="60" as="geometry" />
        </mxCell>
        <mxCell id="p4YoFSWFox9EZgscsfsj-6" value="role" style="whiteSpace=wrap;html=1;rounded=1;" vertex="1" parent="p4YoFSWFox9EZgscsfsj-16">
          <mxGeometry x="440" y="50" width="120" height="60" as="geometry" />
        </mxCell>
        <mxCell id="p4YoFSWFox9EZgscsfsj-1" value="" style="edgeStyle=orthogonalEdgeStyle;rounded=0;orthogonalLoop=1;jettySize=auto;html=1;" edge="1" parent="p4YoFSWFox9EZgscsfsj-16" source="p4YoFSWFox9EZgscsfsj-5" target="p4YoFSWFox9EZgscsfsj-6">
          <mxGeometry relative="1" as="geometry" />
        </mxCell>
        <mxCell id="p4YoFSWFox9EZgscsfsj-7" value="auth" style="whiteSpace=wrap;html=1;rounded=1;" vertex="1" parent="p4YoFSWFox9EZgscsfsj-16">
          <mxGeometry x="40" y="50" width="120" height="60" as="geometry" />
        </mxCell>
        <mxCell id="p4YoFSWFox9EZgscsfsj-2" value="" style="edgeStyle=orthogonalEdgeStyle;rounded=0;orthogonalLoop=1;jettySize=auto;html=1;" edge="1" parent="p4YoFSWFox9EZgscsfsj-16" source="p4YoFSWFox9EZgscsfsj-5" target="p4YoFSWFox9EZgscsfsj-7">
          <mxGeometry relative="1" as="geometry" />
        </mxCell>
        <mxCell id="p4YoFSWFox9EZgscsfsj-17" value="Tasks Domain" style="swimlane;whiteSpace=wrap;html=1;" vertex="1" parent="1">
          <mxGeometry x="80" y="260" width="400" height="240" as="geometry" />
        </mxCell>
        <mxCell id="p4YoFSWFox9EZgscsfsj-11" value="task" style="whiteSpace=wrap;html=1;rounded=1;" vertex="1" parent="p4YoFSWFox9EZgscsfsj-17">
          <mxGeometry x="240" y="150" width="120" height="60" as="geometry" />
        </mxCell>
        <mxCell id="p4YoFSWFox9EZgscsfsj-12" value="status" style="whiteSpace=wrap;html=1;rounded=1;" vertex="1" parent="p4YoFSWFox9EZgscsfsj-17">
          <mxGeometry x="40" y="150" width="120" height="60" as="geometry" />
        </mxCell>
        <mxCell id="p4YoFSWFox9EZgscsfsj-10" value="" style="edgeStyle=orthogonalEdgeStyle;rounded=0;orthogonalLoop=1;jettySize=auto;html=1;" edge="1" parent="p4YoFSWFox9EZgscsfsj-17" source="p4YoFSWFox9EZgscsfsj-11" target="p4YoFSWFox9EZgscsfsj-12">
          <mxGeometry relative="1" as="geometry" />
        </mxCell>
        <mxCell id="p4YoFSWFox9EZgscsfsj-14" style="edgeStyle=orthogonalEdgeStyle;rounded=0;orthogonalLoop=1;jettySize=auto;html=1;exitX=0.5;exitY=1;exitDx=0;exitDy=0;entryX=0.5;entryY=0;entryDx=0;entryDy=0;" edge="1" parent="p4YoFSWFox9EZgscsfsj-17" source="p4YoFSWFox9EZgscsfsj-13" target="p4YoFSWFox9EZgscsfsj-11">
          <mxGeometry relative="1" as="geometry" />
        </mxCell>
        <mxCell id="p4YoFSWFox9EZgscsfsj-13" value="account" style="rounded=1;whiteSpace=wrap;html=1;" vertex="1" parent="p4YoFSWFox9EZgscsfsj-17">
          <mxGeometry x="240" y="50" width="120" height="60" as="geometry" />
        </mxCell>
        <mxCell id="p4YoFSWFox9EZgscsfsj-18" value="Billing Domain" style="swimlane;whiteSpace=wrap;html=1;" vertex="1" parent="1">
          <mxGeometry x="520" y="260" width="400" height="240" as="geometry" />
        </mxCell>
        <mxCell id="p4YoFSWFox9EZgscsfsj-19" value="billing" style="whiteSpace=wrap;html=1;rounded=1;" vertex="1" parent="p4YoFSWFox9EZgscsfsj-18">
          <mxGeometry x="240" y="50" width="120" height="60" as="geometry" />
        </mxCell>
        <mxCell id="p4YoFSWFox9EZgscsfsj-25" style="edgeStyle=orthogonalEdgeStyle;rounded=0;orthogonalLoop=1;jettySize=auto;html=1;exitX=1;exitY=0.5;exitDx=0;exitDy=0;entryX=0;entryY=0.5;entryDx=0;entryDy=0;" edge="1" parent="p4YoFSWFox9EZgscsfsj-18" source="p4YoFSWFox9EZgscsfsj-23" target="p4YoFSWFox9EZgscsfsj-19">
          <mxGeometry relative="1" as="geometry" />
        </mxCell>
        <mxCell id="p4YoFSWFox9EZgscsfsj-27" style="edgeStyle=orthogonalEdgeStyle;rounded=0;orthogonalLoop=1;jettySize=auto;html=1;exitX=0.5;exitY=1;exitDx=0;exitDy=0;entryX=0;entryY=0.5;entryDx=0;entryDy=0;" edge="1" parent="p4YoFSWFox9EZgscsfsj-18" source="p4YoFSWFox9EZgscsfsj-23" target="p4YoFSWFox9EZgscsfsj-24">
          <mxGeometry relative="1" as="geometry" />
        </mxCell>
        <mxCell id="p4YoFSWFox9EZgscsfsj-23" value="account" style="rounded=1;whiteSpace=wrap;html=1;" vertex="1" parent="p4YoFSWFox9EZgscsfsj-18">
          <mxGeometry x="40" y="50" width="120" height="60" as="geometry" />
        </mxCell>
        <mxCell id="p4YoFSWFox9EZgscsfsj-28" style="edgeStyle=orthogonalEdgeStyle;rounded=0;orthogonalLoop=1;jettySize=auto;html=1;exitX=1;exitY=0.5;exitDx=0;exitDy=0;entryX=0.5;entryY=1;entryDx=0;entryDy=0;" edge="1" parent="p4YoFSWFox9EZgscsfsj-18" source="p4YoFSWFox9EZgscsfsj-24" target="p4YoFSWFox9EZgscsfsj-19">
          <mxGeometry relative="1" as="geometry" />
        </mxCell>
        <mxCell id="p4YoFSWFox9EZgscsfsj-24" value="task" style="rounded=1;whiteSpace=wrap;html=1;" vertex="1" parent="p4YoFSWFox9EZgscsfsj-18">
          <mxGeometry x="140" y="150" width="120" height="60" as="geometry" />
        </mxCell>
        <mxCell id="p4YoFSWFox9EZgscsfsj-29" style="edgeStyle=orthogonalEdgeStyle;rounded=0;orthogonalLoop=1;jettySize=auto;html=1;exitX=0.5;exitY=1;exitDx=0;exitDy=0;entryX=0.5;entryY=0;entryDx=0;entryDy=0;dashed=1;dashPattern=8 8;startArrow=classic;startFill=1;" edge="1" parent="1" source="p4YoFSWFox9EZgscsfsj-5" target="p4YoFSWFox9EZgscsfsj-13">
          <mxGeometry relative="1" as="geometry" />
        </mxCell>
        <mxCell id="p4YoFSWFox9EZgscsfsj-30" style="edgeStyle=orthogonalEdgeStyle;rounded=0;orthogonalLoop=1;jettySize=auto;html=1;exitX=0.75;exitY=1;exitDx=0;exitDy=0;entryX=0.5;entryY=0;entryDx=0;entryDy=0;dashed=1;dashPattern=8 8;startArrow=classic;startFill=1;" edge="1" parent="1" source="p4YoFSWFox9EZgscsfsj-5" target="p4YoFSWFox9EZgscsfsj-23">
          <mxGeometry relative="1" as="geometry" />
        </mxCell>
        <mxCell id="p4YoFSWFox9EZgscsfsj-31" style="edgeStyle=orthogonalEdgeStyle;rounded=0;orthogonalLoop=1;jettySize=auto;html=1;exitX=1;exitY=0.5;exitDx=0;exitDy=0;entryX=0;entryY=0.75;entryDx=0;entryDy=0;dashed=1;dashPattern=8 8;startArrow=classic;startFill=1;" edge="1" parent="1" source="p4YoFSWFox9EZgscsfsj-11" target="p4YoFSWFox9EZgscsfsj-24">
          <mxGeometry relative="1" as="geometry" />
        </mxCell>
      </root>
    </mxGraphModel>
  </diagram>
</mxfile>
